<svg width="50" height="50" viewBox="0 0 50 50" fill="none" xmlns="http://www.w3.org/2000/svg">
<rect width="50" height="50" rx="9" fill="#23A0DD"/>
<path fill-rule="evenodd" clip-rule="evenodd" d="M10.8587 25.7002C18.1443 22.5362 22.9944 20.4338 25.4299 19.4138C32.3616 16.5204 33.8187 16.0208 34.7554 16C34.9636 16 35.4216 16.0416 35.7338 16.2914C35.9836 16.4996 36.046 16.7702 36.0877 16.9784C36.1293 17.1865 36.1709 17.6236 36.1293 17.9567C35.7546 21.9117 34.131 31.5079 33.2983 35.9209C32.9445 37.7943 32.2575 38.4188 31.5914 38.4813C30.1343 38.6062 29.031 37.5237 27.6364 36.6078C25.4299 35.1715 24.2017 34.2764 22.0577 32.8609C19.5806 31.2373 21.1834 30.3422 22.5989 28.8851C22.9736 28.5104 29.3641 22.6819 29.489 22.1615C29.5098 22.0991 29.5098 21.8493 29.3641 21.7244C29.2184 21.5995 29.0102 21.6411 28.8437 21.6828C28.6147 21.7244 25.1176 24.0558 18.3108 28.6561C17.3116 29.343 16.4166 29.6761 15.6047 29.6553C14.7096 29.6345 13.0027 29.1557 11.7121 28.7394C10.1509 28.2398 8.90199 27.9692 9.00607 27.0949C9.06851 26.637 9.69299 26.179 10.8587 25.7002Z" fill="white"/>
</svg>
