<svg width="50" height="50" viewBox="0 0 50 50" fill="none" xmlns="http://www.w3.org/2000/svg">
<rect width="50" height="50" rx="9" fill="#31B644"/>
<path fill-rule="evenodd" clip-rule="evenodd" d="M38.4194 24.0192C38.2401 16.798 32.284 11 24.9574 11C17.6308 11 11.8223 16.6715 11.506 23.7767C11.506 23.977 11.4955 24.1668 11.4955 24.3671C11.4955 26.8971 12.2018 29.2479 13.4246 31.272L11 38.4404L18.4531 36.0685C20.3822 37.1227 22.596 37.7341 24.9574 37.7341C32.3894 37.7341 38.4194 31.7569 38.4194 24.3671C38.4194 24.2511 38.4194 24.1351 38.4194 24.0297V24.0192ZM24.968 35.5836C22.6698 35.5836 20.5298 34.8984 18.7377 33.7282L14.3945 35.1198L15.8071 30.9452C14.4472 29.0898 13.646 26.8128 13.646 24.3565C13.646 23.9876 13.6671 23.6291 13.6987 23.2707C14.2574 17.5887 19.0961 13.1295 24.9574 13.1295C30.8187 13.1295 35.7839 17.6941 36.2372 23.4816C36.2583 23.7767 36.2794 24.0614 36.2794 24.3565C36.2794 30.5551 31.1982 35.5836 24.9574 35.5836H24.968Z" fill="white"/>
<path fill-rule="evenodd" clip-rule="evenodd" d="M31.1349 27.0548C30.7976 26.8967 29.1847 26.0955 28.879 25.9901C28.5733 25.8741 28.3519 25.8319 28.1305 26.1587C27.9091 26.4855 27.2766 27.2235 27.0869 27.4343C26.8971 27.6557 26.7074 27.6768 26.37 27.5186C26.0432 27.3605 24.9785 27.0126 23.7135 25.8952C22.7331 25.0308 22.069 23.9555 21.8792 23.6287C21.6894 23.3019 21.8581 23.1227 22.0268 22.9646C22.1744 22.817 22.3536 22.5851 22.5223 22.3953C22.5644 22.3426 22.6066 22.2899 22.6382 22.2372C22.712 22.1212 22.7753 22.0053 22.8491 21.8471C22.965 21.6257 22.9018 21.436 22.828 21.2779C22.7436 21.1092 22.0795 19.4963 21.8054 18.8427C21.5313 18.1891 21.2572 18.3051 21.0675 18.3051C20.8777 18.3051 20.6563 18.2734 20.435 18.2734C20.2136 18.2734 19.8552 18.3578 19.5495 18.6846C19.2437 19.0114 18.4004 19.802 18.4004 21.4255C18.4004 21.805 18.4742 22.1845 18.5691 22.5429C18.9064 23.6919 19.6232 24.6513 19.7497 24.8094C19.9079 25.0202 22.0268 28.4358 25.3896 29.7535C28.7525 31.0607 28.7525 30.6179 29.3534 30.5652C29.9543 30.5125 31.3036 29.7746 31.5777 29.005C31.8518 28.246 31.8518 27.5819 31.7675 27.4448C31.6831 27.3183 31.4617 27.234 31.1349 27.0653V27.0548Z" fill="white"/>
</svg>
