<svg width="50" height="50" viewBox="0 0 50 50" fill="none" xmlns="http://www.w3.org/2000/svg">
<g clip-path="url(#clip0_1402_22)">
<path d="M41.0711 50H8.92895C3.99536 50 0 46.0046 0 41.0711V8.92895C0 3.99536 3.99536 0 8.92895 0H41.0711C46.0046 0 50 3.99536 50 8.92895V41.0711C50 46.0046 46.0046 50 41.0711 50Z" fill="url(#paint0_radial_1402_22)"/>
<path d="M24.9944 13.7568C28.6525 13.7568 29.0847 13.7674 30.5289 13.8412C31.8677 13.9044 32.5951 14.1258 33.0695 14.3156C33.7126 14.5686 34.1659 14.8637 34.6508 15.3381C35.1357 15.823 35.4309 16.2763 35.6733 16.9194C35.8631 17.4043 36.0845 18.1317 36.1477 19.4705C36.211 20.9147 36.2321 21.347 36.2321 25.005C36.2321 28.663 36.2215 29.0952 36.1477 30.5395C36.0845 31.8783 35.8631 32.6057 35.6733 33.08C35.4203 33.7231 35.1252 34.1764 34.6508 34.6508C34.1764 35.1252 33.7126 35.4309 33.0695 35.6733C32.5846 35.8631 31.8572 36.0845 30.5289 36.1477C29.0847 36.211 28.6525 36.2321 24.9944 36.2321C21.3364 36.2321 20.9042 36.2215 19.46 36.1477C18.1212 36.0845 17.3938 35.8631 16.9194 35.6733C16.2763 35.4203 15.823 35.1252 15.3381 34.6508C14.8532 34.1659 14.558 33.7126 14.3156 33.08C14.1258 32.5951 13.9044 31.8677 13.8412 30.5395C13.7779 29.0952 13.7568 28.663 13.7568 25.005C13.7568 21.347 13.7674 20.9147 13.8412 19.4705C13.9044 18.1317 14.1258 17.4043 14.3156 16.9194C14.5686 16.2763 14.8637 15.823 15.3381 15.3381C15.8125 14.8532 16.2763 14.558 16.9194 14.3156C17.4043 14.1258 18.1317 13.9044 19.46 13.8412C20.9042 13.7779 21.3364 13.7568 24.9944 13.7568ZM24.9944 11.29C21.2732 11.29 20.8093 11.3006 19.344 11.3744C17.8892 11.4376 16.8878 11.6695 16.0128 12.0069C15.1062 12.3548 14.3472 12.8291 13.5882 13.5882C12.8291 14.3472 12.3548 15.1167 12.0069 16.0128C11.6695 16.8878 11.4376 17.8787 11.3744 19.344C11.3111 20.8093 11.29 21.2732 11.29 24.9944C11.29 28.7157 11.3006 29.1796 11.3744 30.6449C11.4376 32.0997 11.6695 33.1011 12.0069 33.9761C12.3548 34.8722 12.8291 35.6417 13.5882 36.4007C14.3472 37.1597 15.1167 37.6341 16.0128 37.982C16.8878 38.3193 17.8787 38.5513 19.344 38.6145C20.8093 38.6778 21.2732 38.6989 24.9944 38.6989C28.7157 38.6989 29.1796 38.6883 30.6449 38.6145C32.0997 38.5513 33.1011 38.3193 33.9761 37.982C34.8827 37.6341 35.6417 37.1597 36.4007 36.4007C37.1597 35.6417 37.6341 34.8722 37.982 33.9761C38.3193 33.1011 38.5513 32.1102 38.6145 30.6449C38.6778 29.1796 38.6989 28.7157 38.6989 24.9944C38.6989 21.2732 38.6883 20.8093 38.6145 19.344C38.5513 17.8892 38.3193 16.8878 37.982 16.0128C37.6341 15.1062 37.1597 14.3472 36.4007 13.5882C35.6417 12.8291 34.8722 12.3548 33.9761 12.0069C33.1011 11.6695 32.1102 11.4376 30.6449 11.3744C29.1796 11.3111 28.7157 11.29 24.9944 11.29Z" fill="white"/>
<path d="M24.9941 17.9629C21.1042 17.9629 17.9521 21.1149 17.9521 25.0048C17.9521 28.8948 21.1042 32.0468 24.9941 32.0468C28.884 32.0468 32.0361 28.8948 32.0361 25.0048C32.0361 21.1149 28.884 17.9629 24.9941 17.9629ZM24.9941 29.5695C22.4746 29.5695 20.4295 27.5243 20.4295 25.0048C20.4295 22.4853 22.4746 20.4402 24.9941 20.4402C27.5136 20.4402 29.5587 22.4853 29.5587 25.0048C29.5587 27.5243 27.5136 29.5695 24.9941 29.5695Z" fill="white"/>
<path d="M33.9658 17.6787C33.9658 18.5853 33.2279 19.3232 32.3213 19.3232C31.4147 19.3232 30.6768 18.5853 30.6768 17.6787C30.6768 16.7721 31.4147 16.0342 32.3213 16.0342C33.2279 16.0342 33.9658 16.7721 33.9658 17.6787Z" fill="white"/>
</g>
<defs>
<radialGradient id="paint0_radial_1402_22" cx="0" cy="0" r="1" gradientUnits="userSpaceOnUse" gradientTransform="translate(-1.25448 50.1687) scale(92.4415)">
<stop stop-color="#F5EC53"/>
<stop offset="0.24" stop-color="#E48244"/>
<stop offset="0.4" stop-color="#D15767"/>
<stop offset="0.49" stop-color="#C84278"/>
<stop offset="1" stop-color="#192CFA"/>
</radialGradient>
<clipPath id="clip0_1402_22">
<rect width="50" height="50" fill="white"/>
</clipPath>
</defs>
</svg>
